<svg id="Layer_1" data-name="Layer 1" xmlns="http://www.w3.org/2000/svg" viewBox="0 0 1024 512"><defs><style>.cls-1{fill:#fff;}</style></defs><title>PPVRLogo2D_White</title><path class="cls-1" d="M51.38,36H168.8q7.67,0,12.66,4a29.35,29.35,0,0,1,7.93,9.72A43.49,43.49,0,0,1,193.49,62a67.82,67.82,0,0,1,1.15,11.64,39,39,0,0,1-5.12,19.7,55.67,55.67,0,0,1-13,15.48,61.55,61.55,0,0,1-17.4,10.1,51.22,51.22,0,0,1-18.17,3.58H69L51.12,171.59H2Zm22.26,73.68L98.19,87.94h40.93q.25,0,1.15-1.15t1.92-2.69q1-1.54,1.92-2.94A11,11,0,0,0,145.27,79l.51-1.28a3.09,3.09,0,0,1-.51-1.28A26.28,26.28,0,0,0,142.58,73c-1.28-1.45-2.09-2.18-2.43-2.18H87.7Z"/><path class="cls-1" d="M174.68,171.59,224.06,36h48.86L236.08,137.06h81.1q.25,0-2.94,4.35t-8.06,10.1q-4.86,5.76-10.23,11.51a85,85,0,0,1-9,8.57Z"/><path class="cls-1" d="M448.94,171.59l-5.37-28.91a29.23,29.23,0,0,1-3.71,5.88q-3.2,4.36-7.16,9.21t-7.8,9q-3.84,4.1-5.63,4.86H311a7.48,7.48,0,0,1,.51-1.79V169l92.1-117.68a20.82,20.82,0,0,1,3.07-4.09,69.74,69.74,0,0,1,5-5,60.63,60.63,0,0,1,5.37-4.35A8.36,8.36,0,0,1,421.56,36h43q2.55,0,4.73,2.81A26.57,26.57,0,0,1,473,45.72a83.87,83.87,0,0,1,2.69,8.57q1.15,4.48,1.92,7.55l16.88,109.75Zm-57.31-34.28h51.93l-9-60.12-43,57.56Z"/><path class="cls-1" d="M555.62,36h61.91l14.58,76.24L660,36h48.61L659.23,171.59H597.32L583,95.36l-27.63,76.24H506.24Z"/><path class="cls-1" d="M868.76,36a69.89,69.89,0,0,1-6,9.34q-4.22,5.76-9,11.38a103.33,103.33,0,0,1-9.21,9.72q-4.48,4.1-6.52,4.09h-78.8l-14.58,40.17L769,87.17h59.1l-36.58,34.54H740.58L735,137.06h98c-.17.34-.6,1.07-1.28,2.17s-1.37,2.26-2,3.46-1.37,2.3-2,3.32a18.14,18.14,0,0,1-1.28,1.79A77.74,77.74,0,0,1,820,155q-4,4.09-7.8,7.8T805.44,169a21,21,0,0,1-3.2,2.56H673.56L722.93,36Z"/><path class="cls-1" d="M912,70.54H863.64v-.25q.25-1,3.71-5.63t8.19-10.23q4.73-5.63,9.72-10.87A50.39,50.39,0,0,1,893.83,36H1022a69.67,69.67,0,0,1-6,9.34q-4.22,5.76-9,11.38a103.1,103.1,0,0,1-9.21,9.72q-4.48,4.1-6.52,4.09H961.11L924.27,171.59H875.15Z"/><path class="cls-1" d="M39.88,189.81H118.5a13.2,13.2,0,0,1,8.48,2.66,19.65,19.65,0,0,1,5.31,6.51A29.11,29.11,0,0,1,135,207.2a45.4,45.4,0,0,1,.77,7.79,26.12,26.12,0,0,1-3.43,13.19,37.27,37.27,0,0,1-8.73,10.36A41.21,41.21,0,0,1,112,245.31a34.29,34.29,0,0,1-12.16,2.4H51.7l-12,32.89H6.83Zm14.9,49.33,16.44-14.56h27.4q.17,0,.77-.77t1.28-1.8q.68-1,1.28-2a7.39,7.39,0,0,0,.77-1.46l.34-.85a2.07,2.07,0,0,1-.34-.86,17.6,17.6,0,0,0-1.8-2.31c-.86-1-1.4-1.46-1.63-1.46H64.21Z"/><path class="cls-1" d="M155.49,189.81h76.39a16.27,16.27,0,0,1,9.51,2.57,18,18,0,0,1,5.74,6.51,28.57,28.57,0,0,1,2.83,8.56,52.38,52.38,0,0,1,.77,8.57q0,8.73-4.28,14.39a31.43,31.43,0,0,1-10.7,9,50.78,50.78,0,0,1-14.22,4.8,135.34,135.34,0,0,1-14.64,2l33.57,34.43H203.79L168.51,248l-1.88,1.37-11.3,31.17H122.44Zm62,26.21a4.78,4.78,0,0,0-.51-2.31c-.34-.62-1.2-.94-2.57-.94H180l-9.76,26.72,15.07-15.24h27.4a3.8,3.8,0,0,0,3.68-2.31,9.56,9.56,0,0,0,1.11-4Z"/><path class="cls-1" d="M363.25,250.45a61.38,61.38,0,0,1-29.89,26.2,50.7,50.7,0,0,1-19.61,3.94H296.62A92.82,92.82,0,0,1,279.15,279a39.62,39.62,0,0,1-13.87-5.22,25.88,25.88,0,0,1-9.16-10q-3.34-6.33-3.34-15.93,0-2.06.17-4.28t.51-4.63a53.18,53.18,0,0,1,6.34-18.5,62.43,62.43,0,0,1,12.33-15.67,63.34,63.34,0,0,1,16.19-10.87,42,42,0,0,1,17.9-4.11h22.61q20.72,0,31.43,7.11T371,220.47a63.18,63.18,0,0,1-1,11A54,54,0,0,1,363.25,250.45Zm-77.76-12.67v1a19,19,0,0,0,1.2,6.42,23,23,0,0,0,3.25,6.08,17.67,17.67,0,0,0,4.8,4.45,10.79,10.79,0,0,0,5.82,1.71h11.3a13,13,0,0,0,4.88-1.46,42.43,42.43,0,0,0,6.59-3.85,52.68,52.68,0,0,0,6.51-5.39,24.28,24.28,0,0,0,4.62-5.91,14.14,14.14,0,0,0,1.88-3.77l.69-1.71a10.75,10.75,0,0,1,.34-1.54q.17-1.37.26-2.82c.06-1,.09-2,.09-3a29.71,29.71,0,0,0-.51-5.48,12.06,12.06,0,0,0-2.05-4.88,10.92,10.92,0,0,0-4.2-3.43,16,16,0,0,0-6.94-1.28H310.15a14.26,14.26,0,0,0-5.91,1.46,31.9,31.9,0,0,0-6.25,3.85,42.78,42.78,0,0,0-5.74,5.39,30.69,30.69,0,0,0-4.2,5.91q-.86,2.06-1.54,3.85a13.84,13.84,0,0,0-.86,3.17A2.27,2.27,0,0,0,285.49,237.77Z"/><path class="cls-1" d="M407.95,212.94H375.58v-.17a19,19,0,0,1,2.48-3.77q2.31-3.08,5.48-6.85t6.51-7.28a33.73,33.73,0,0,1,5.74-5.05H481.6a46.64,46.64,0,0,1-4,6.25q-2.83,3.85-6,7.62a69,69,0,0,1-6.17,6.51q-3,2.74-4.37,2.74H440.83l-24.66,67.65H383.29Z"/><path class="cls-1" d="M588,189.81a46.79,46.79,0,0,1-4,6.25q-2.83,3.85-6,7.62a69.17,69.17,0,0,1-6.17,6.51q-3,2.74-4.37,2.74H514.65l-9.76,26.89,16.27-15.76h39.56l-24.49,23.12H502.15l-3.77,10.28H564c-.11.23-.4.71-.86,1.45s-.92,1.51-1.37,2.31-.92,1.54-1.37,2.23a12.14,12.14,0,0,1-.86,1.2,52,52,0,0,1-4.2,4.8q-2.66,2.74-5.22,5.22t-4.54,4.2a14,14,0,0,1-2.14,1.71H457.28l33.06-90.78Z"/><path class="cls-1" d="M581.28,238.63a44.39,44.39,0,0,1,3.6-17,56.12,56.12,0,0,1,9.76-15.76,54.3,54.3,0,0,1,14.22-11.56A34.34,34.34,0,0,1,626,189.81h70.74q-5,6.51-10,12.25a110.52,110.52,0,0,1-11,10.87H631.12a9.37,9.37,0,0,0-4.71,1.46,22.54,22.54,0,0,0-4.8,3.85,33.35,33.35,0,0,0-4.2,5.39,29.77,29.77,0,0,0-2.91,5.91,25.52,25.52,0,0,0-1.37,7,16.48,16.48,0,0,0,1.71,6.94,29.09,29.09,0,0,0,4.37,6.76,27.22,27.22,0,0,0,5.82,5.14,11.22,11.22,0,0,0,6.08,2.06h40.93q-3.94,5.82-8.91,11.9a73.86,73.86,0,0,1-11.48,11.22H638a112.74,112.74,0,0,1-20.72-1.88,55.82,55.82,0,0,1-18.16-6.6,36.39,36.39,0,0,1-12.93-12.76q-4.88-8-4.88-20.38Z"/><path class="cls-1" d="M724,212.94H691.58v-.17a19,19,0,0,1,2.48-3.77q2.31-3.08,5.48-6.85t6.51-7.28a33.73,33.73,0,0,1,5.74-5.05H797.6a46.64,46.64,0,0,1-4,6.25q-2.83,3.85-6,7.62a69,69,0,0,1-6.17,6.51q-3,2.74-4.37,2.74H756.84l-24.66,67.65H699.29Z"/><path class="cls-1" d="M890.43,250.45a61.38,61.38,0,0,1-29.89,26.2,50.7,50.7,0,0,1-19.61,3.94H823.8A92.82,92.82,0,0,1,806.34,279a39.62,39.62,0,0,1-13.87-5.22,25.88,25.88,0,0,1-9.16-10Q780,257.47,780,247.88q0-2.06.17-4.28t.51-4.63a53.18,53.18,0,0,1,6.34-18.5,62.43,62.43,0,0,1,12.33-15.67,63.34,63.34,0,0,1,16.19-10.87,42,42,0,0,1,17.9-4.11H856q20.72,0,31.43,7.11t10.7,23.55a63.18,63.18,0,0,1-1,11A54,54,0,0,1,890.43,250.45Zm-77.76-12.67v1a19,19,0,0,0,1.2,6.42,23,23,0,0,0,3.25,6.08,17.67,17.67,0,0,0,4.8,4.45,10.79,10.79,0,0,0,5.82,1.71H839a13,13,0,0,0,4.88-1.46,42.43,42.43,0,0,0,6.59-3.85,52.68,52.68,0,0,0,6.51-5.39,24.28,24.28,0,0,0,4.62-5.91,14.14,14.14,0,0,0,1.88-3.77l.69-1.71a10.75,10.75,0,0,1,.34-1.54q.17-1.37.26-2.82c.06-1,.09-2,.09-3a29.71,29.71,0,0,0-.51-5.48,12.06,12.06,0,0,0-2.05-4.88,10.92,10.92,0,0,0-4.2-3.43,16,16,0,0,0-6.94-1.28H837.34a14.26,14.26,0,0,0-5.91,1.46,31.9,31.9,0,0,0-6.25,3.85,42.78,42.78,0,0,0-5.74,5.39,30.69,30.69,0,0,0-4.2,5.91q-.86,2.06-1.54,3.85a13.84,13.84,0,0,0-.86,3.17A2.27,2.27,0,0,0,812.67,237.77Z"/><path class="cls-1" d="M921.94,189.81h76.39a16.26,16.26,0,0,1,9.51,2.57,18,18,0,0,1,5.74,6.51,28.57,28.57,0,0,1,2.83,8.56,52.37,52.37,0,0,1,.77,8.57q0,8.73-4.28,14.39a31.43,31.43,0,0,1-10.7,9,50.78,50.78,0,0,1-14.21,4.8,135.36,135.36,0,0,1-14.64,2l33.57,34.43H970.24L935,248l-1.88,1.37-11.3,31.17H888.89Zm62,26.21a4.8,4.8,0,0,0-.51-2.31c-.34-.62-1.2-.94-2.57-.94H946.44l-9.76,26.72,15.07-15.24h27.41a3.8,3.8,0,0,0,3.68-2.31,9.57,9.57,0,0,0,1.11-4Z"/><path class="cls-1" d="M460,297.1h69.34L409.84,454.64q-1.69,2-4.71,5.39t-6.56,6.9a50.83,50.83,0,0,1-7.24,6.06q-3.71,2.53-6.06,2.52H329.72q-3.71,0-6.39-3.7a38,38,0,0,1-4.71-9.09,86.45,86.45,0,0,1-3.36-11.28q-1.35-5.88-2.36-9.93L292,297.1h58.57l16.16,120.17Z"/><path class="cls-1" d="M544.82,297.1H695q11.44,0,18.68,5a35.34,35.34,0,0,1,11.28,12.79,56.15,56.15,0,0,1,5.55,16.83A102.94,102.94,0,0,1,732,348.61q0,17.16-8.41,28.28a61.78,61.78,0,0,1-21,17.67A99.81,99.81,0,0,1,674.59,404a266,266,0,0,1-28.78,3.87l66,67.66h-72l-69.34-64-3.7,2.69-22.22,61.26H479.85Zm121.86,51.51a9.4,9.4,0,0,0-1-4.55c-.67-1.23-2.36-1.85-5-1.85H593l-19.19,52.51,29.62-30h53.86a7.47,7.47,0,0,0,7.24-4.54,18.78,18.78,0,0,0,2.19-7.91Z"/></svg>