<?xml version="1.0" standalone="no"?>
<!DOCTYPE svg PUBLIC "-//W3C//DTD SVG 20010904//EN"
 "http://www.w3.org/TR/2001/REC-SVG-20010904/DTD/svg10.dtd">
<svg version="1.0" xmlns="http://www.w3.org/2000/svg"
 width="500.000000pt" height="500.000000pt" viewBox="0 0 500.000000 500.000000"
 preserveAspectRatio="xMidYMid meet">
<metadata>
Created by potrace 1.14, written by Peter Selinger 2001-2017
</metadata>
<g transform="translate(0.000000,500.000000) scale(0.100000,-0.100000)"
fill="#000000" stroke="none">
<path d="M2279 4756 c-2 -2 -35 -7 -74 -10 -38 -3 -79 -7 -90 -10 -11 -2 -40
-7 -65 -11 -89 -13 -282 -66 -384 -104 -754 -283 -1305 -939 -1441 -1716 -8
-44 -17 -96 -21 -115 -4 -19 -8 -138 -9 -265 -3 -223 2 -296 34 -455 25 -127
30 -148 45 -190 9 -25 16 -50 16 -57 0 -28 96 -257 155 -369 89 -169 213 -349
329 -474 l35 -38 -30 -108 c-16 -60 -32 -116 -33 -124 -2 -8 -20 -71 -41 -140
-20 -69 -38 -132 -40 -140 -2 -8 -17 -60 -34 -115 -27 -93 -81 -296 -81 -309
0 -3 862 -6 1915 -6 l1915 0 -4 22 c-3 13 -13 50 -24 83 -19 57 -57 182 -104
340 -11 39 -29 96 -39 127 -11 32 -20 66 -22 75 -1 10 -6 24 -10 30 -5 7 -6
13 -3 13 3 0 1 12 -5 28 -6 15 -12 34 -14 42 -2 8 -15 55 -29 105 l-24 89 21
27 c162 196 241 309 325 469 137 258 226 557 249 840 19 225 3 498 -38 680 -6
25 -12 52 -14 60 -56 273 -244 652 -443 895 -369 451 -871 731 -1472 820 -44
7 -445 16 -451 11z"/>
</g>
</svg>
